<?xml version="1.0" encoding="utf-8"?>
<!-- Generator: Adobe Illustrator 16.0.0, SVG Export Plug-In . SVG Version: 6.00 Build 0)  -->
<!DOCTYPE svg PUBLIC "-//W3C//DTD SVG 1.0//EN" "http://www.w3.org/TR/2001/REC-SVG-20010904/DTD/svg10.dtd">
<svg version="1.0" id="Layer_1" xmlns="http://www.w3.org/2000/svg" xmlns:xlink="http://www.w3.org/1999/xlink" x="0px" y="0px"
	 width="20px" height="20px" viewBox="0 0 20 20" enable-background="new 0 0 20 20" xml:space="preserve">
<path d="M3.014,5.38v9.241h13.972V5.38H3.014z M16.147,13.889H3.853V6.112h12.295V13.889z"/>
<polygon points="4.658,6.891 4.658,8.63 4.658,10.368 4.658,12.107 9.595,12.107 9.595,10.368 13.338,10.368 13.338,8.63 
	15.34,8.63 15.34,6.891 "/>
<g>
	<polygon points="17.97,16.548 17.97,17.97 16.547,17.97 16.547,19.004 19.002,19.004 19.002,16.548 	"/>
	<polygon points="16.547,2.033 17.97,2.033 17.97,3.454 19.002,3.454 19.002,0.998 16.547,0.998 	"/>
	<polygon points="2.031,3.454 2.031,2.033 3.454,2.033 3.454,0.998 0.995,0.998 0.995,3.454 	"/>
	<polygon points="3.454,17.97 2.031,17.97 2.031,16.548 0.995,16.548 0.995,19.004 3.454,19.004 	"/>
</g>
</svg>
