<?xml version="1.0" encoding="utf-8"?>
<!-- Generator: Adobe Illustrator 16.0.0, SVG Export Plug-In . SVG Version: 6.00 Build 0)  -->
<!DOCTYPE svg PUBLIC "-//W3C//DTD SVG 1.0//EN" "http://www.w3.org/TR/2001/REC-SVG-20010904/DTD/svg10.dtd">
<svg version="1.0" id="Layer_1" xmlns="http://www.w3.org/2000/svg" xmlns:xlink="http://www.w3.org/1999/xlink" x="0px" y="0px"
	 width="20px" height="20px" viewBox="0 0 20 20" enable-background="new 0 0 20 20" xml:space="preserve">
<circle cx="10" cy="11.053" r="0.884"/>
<line fill="none" stroke="#000000" stroke-miterlimit="10" x1="10" y1="11.055" x2="10" y2="5.033"/>
<line fill="none" stroke="#000000" stroke-miterlimit="10" x1="10" y1="11.055" x2="5.942" y2="15.111"/>
<path d="M15.67,4.755l0.875-1.251l-1.668-1.168L13.999,3.59c-0.989-0.53-2.091-0.876-3.265-0.978V2.173h1.409V0.468H7.857v1.705
	h1.409v0.439c-4.338,0.372-7.745,4.006-7.745,8.442c0,4.682,3.796,8.477,8.479,8.477c4.683,0,8.479-3.795,8.479-8.477
	C18.479,8.552,17.395,6.306,15.67,4.755z M10,17.693c-3.668,0-6.641-2.973-6.641-6.643c0-3.666,2.973-6.639,6.641-6.639
	c3.667,0,6.642,2.973,6.642,6.639C16.642,14.721,13.667,17.693,10,17.693z"/>
</svg>
